<?xml version="1.0" encoding="UTF-8" standalone="no"?>
<!-- Generator: Adobe Illustrator 27.5.0, SVG Export Plug-In . SVG Version: 6.00 Build 0)  -->

<svg
   version="1.1"
   id="Layer_1"
   x="0px"
   y="0px"
   viewBox="0 0 340.453 344.564"
   style="enable-background:new 0 0 340.453 344.564;"
   xml:space="preserve"
   sodipodi:docname="395229849_f746bece-66b8-41c4-ad1a-4ed07d6550af.svg"
   inkscape:version="1.1.1 (3bf5ae0d25, 2021-09-20)"
   xmlns:inkscape="http://www.inkscape.org/namespaces/inkscape"
   xmlns:sodipodi="http://sodipodi.sourceforge.net/DTD/sodipodi-0.dtd"
   xmlns="http://www.w3.org/2000/svg"
   xmlns:svg="http://www.w3.org/2000/svg"><defs
   id="defs19" /><sodipodi:namedview
   id="namedview17"
   pagecolor="#505050"
   bordercolor="#ffffff"
   borderopacity="1"
   inkscape:pageshadow="0"
   inkscape:pageopacity="0"
   inkscape:pagecheckerboard="1"
   showgrid="false"
   inkscape:zoom="2.3566014"
   inkscape:cx="210.68476"
   inkscape:cy="206.01702"
   inkscape:window-width="2400"
   inkscape:window-height="1271"
   inkscape:window-x="2391"
   inkscape:window-y="-9"
   inkscape:window-maximized="1"
   inkscape:current-layer="g14" />
<g
   id="g14">
	<g
   id="g8">
		<path
   style="fill:#97a945"
   d="m 47.41,335.018 c -2.49,-1.021 -4.936,-2.22 -7.342,-3.598 C 20.856,320.407 8.677,303.035 5.777,282.505 2.157,256.877 13.281,229.215 37.101,204.602 L 174.84,55.683 C 176.766,53.269 188.95,38.44 207.6,25.46 234.848,6.497 262.843,0.675 288.56,8.626 c 28.236,8.734 39.338,26.231 43.669,39.371 8.345,25.318 -0.348,59.915 -22.687,90.289 -0.148,0.201 -0.304,0.396 -0.469,0.583 l -55.42858,60.30838 c -3.17,3.614 -15.0391,8.63474 -18.6471,5.47074 -3.614,-3.17 15.54664,-24.79392 18.71664,-28.40792 L 295.738,127.676 C 314.636,101.844 322.283,73.428 315.697,53.448 311.264,39.994 300.414,30.51 283.418,25.258 233.511,9.827 188.766,66.129 188.32,66.7 c -0.148,0.189 -0.31,0.38 -0.473,0.556 L 49.811,216.496 c -0.045,0.05 -0.092,0.099 -0.139,0.147 -20.047,20.687 -29.514,43.213 -26.659,63.428 2.132,15.092 11.263,27.965 25.713,36.247 33.644,19.297 69.062,-17.188 70.739,-18.951 l 59.65556,-66.12838 c 12.623,-14.471 33.47258,-34.61042 30.17658,-46.66342 -2.802,-10.244 -13.65471,-27.81382 -27.38971,-32.36082 -29.717,-9.832 -55.24668,18.63363 -55.49268,18.95163 -0.163,0.213 -19.00695,17.81493 -19.18995,18.01093 l -19.943974,19.94397 c -3.275,3.519 -9.557904,6.35983 -13.075904,3.08783 -3.519,-3.275 1.376078,-10.47936 4.649078,-13.99836 l 28.12299,-28.70189 c 1.54,-1.92 14.09909,-14.66507 25.54209,-22.27807 17.457,-11.615 38.38504,-15.57368 55.70404,-9.84368 19.249,6.368 29.69396,26.26911 34.04496,42.17311 4.884,17.858 -6.23675,31.81092 -22.83975,50.84592 L 132.439,308.974 c -0.051,0.057 -0.102,0.114 -0.154,0.17 -0.458,0.493 -11.396,12.179 -27.804,20.848 -19.946,10.539 -39.511,12.226 -57.071,5.026 z"
   id="path2"
   sodipodi:nodetypes="sccccccccccccccccccccccccccccccccccccccs" />
		<path
   style="fill:#97a945"
   d="m 287.967,14.432 c 0,0 -32.742,-11.529 -69.757,9.338 0,0 -18.008,9.216 -33.641,26.52 -15.633,17.304 -150.62,162.577 -150.62,162.577 0,0 -22.305,25.477 -24.852,46.725 0,0 13.113,-27.349 26.269,-40.926 C 48.521,205.089 189.92,53.433 189.92,53.433 c 0,0 23.478,-21.287 43.041,-29.78 21.35,-9.268 38.61,-7.407 55.006,-9.221 z"
   id="path4" />
		
	</g>
	<path
   style="fill:#5f7043"
   d="m 180.2533,235.60467 c -0.013,0.003 -20.77965,23.76004 -20.79265,23.76304 -5.859,10.393 -16.58204,19.661 -16.58204,19.661 0,0 -11.79961,19.39329 -43.21061,37.46629 -31.411,18.073 -55.643,1.807 -61.476,-1.807 -5.834,-3.615 -3.59,3.163 -3.59,3.163 13.462,18.977 42.25398,17.45604 42.25398,17.45604 30.065,-5.422 78.45971,-56.74603 78.45971,-56.74603 0,0 5.32775,-4.40309 14.30175,-17.95809 1.769,-2.672 20.77828,-23.76662 21.55524,-26.61662 -0.944,-1.98 -9.12338,1.17537 -10.91938,1.61837 z"
   id="path10"
   sodipodi:nodetypes="cccsccccscc" />
	<path
   style="fill:#5f7043"
   d="m 242.00768,199.43708 c 0,0 8.42836,-1.77934 14.71036,-10.36434 6.282,-8.585 56.5607,-63.4932 56.5607,-63.4932 0,0 20.48592,-42.759038 17.34492,-68.061038 0,0 -11.51272,-17.261497 -8.60472,-5.111497 2.312,9.661 -4.40828,57.782875 -21.46028,75.855875 -17.052,18.073 -41.8301,47.68298 -41.8301,47.68298 0,0 -23.45188,24.84622 -16.72088,23.49122 z"
   id="path12"
   sodipodi:nodetypes="cscccscc" />
</g>
</svg>
